<svg width="74" height="46" viewBox="0 0 74 46" fill="none" xmlns="http://www.w3.org/2000/svg">
<path d="M27.7302 36.3745C27.5503 36.2831 27.3499 36.2363 27.129 36.2363C26.9082 36.2363 26.7158 36.2824 26.5389 36.3745C26.3589 36.466 26.2134 36.5888 26.1001 36.7417C25.9845 36.8945 25.907 37.0627 25.8616 37.247H28.373C28.3459 37.0642 28.2757 36.8982 28.1646 36.7417C28.0556 36.5888 27.9101 36.466 27.7331 36.3745H27.7302Z" fill="#FF0F43"/>
<path d="M37.9745 37.0918C38.0688 37.0048 38.1149 36.8921 38.1149 36.7503C38.1149 36.6084 38.0666 36.4943 37.9745 36.4087C37.8802 36.3217 37.75 36.2815 37.5774 36.2815H36.3846V37.2212H37.5774C37.7478 37.2212 37.8802 37.1796 37.9745 37.094V37.0925V37.0918Z" fill="#FF0F43"/>
<path d="M37.6461 37.9475H36.3861V39.0577H37.6461C37.8436 39.0562 38.0016 39.005 38.1149 38.9033C38.2275 38.8017 38.286 38.6664 38.286 38.5033C38.286 38.3402 38.229 38.2049 38.1149 38.1033C38.0023 38.0016 37.8436 37.9504 37.6461 37.9504V37.9475Z" fill="#FF0F43"/>
<path d="M33.0505 36.4133C32.8589 36.2963 32.6461 36.2378 32.4062 36.2378C32.1664 36.2378 31.9506 36.2963 31.7546 36.4133C31.5586 36.5303 31.4058 36.6963 31.2946 36.9135C31.1835 37.1293 31.1286 37.3823 31.1286 37.6734C31.1286 37.9644 31.1827 38.208 31.2946 38.4237C31.4058 38.6409 31.5586 38.8076 31.7546 38.9239C31.9506 39.0424 32.1678 39.0994 32.4062 39.0994C32.6446 39.0994 32.8589 39.0424 33.0505 38.9239C33.2407 38.8069 33.3921 38.6409 33.5017 38.4237C33.6129 38.208 33.6678 37.9579 33.6678 37.6734C33.6678 37.3889 33.6136 37.1293 33.5017 36.9135C33.3928 36.6963 33.2414 36.5296 33.0505 36.4133Z" fill="#FF0F43"/>
<path d="M57.3632 37.9475H56.1032V39.0577H57.3632C57.5607 39.0562 57.7187 39.005 57.832 38.9033C57.9446 38.8017 58.0031 38.6664 58.0031 38.5033C58.0031 38.3402 57.9461 38.2049 57.832 38.1033C57.7194 38.0016 57.5607 37.9504 57.3632 37.9504V37.9475Z" fill="#FF0F43"/>
<path d="M57.6916 37.0918C57.7859 37.0048 57.832 36.8921 57.832 36.7503C57.832 36.6084 57.7837 36.4943 57.6916 36.4087C57.5973 36.3217 57.4671 36.2815 57.2945 36.2815H56.1017V37.2212H57.2945C57.4649 37.2212 57.5973 37.1796 57.6916 37.094V37.0925V37.0918Z" fill="#FF0F43"/>
<path d="M52.7472 36.4148C52.5417 36.2963 52.3128 36.2363 52.0583 36.2363C51.8038 36.2363 51.58 36.2963 51.3781 36.4148C51.1726 36.5347 51.011 36.7036 50.8955 36.9194C50.7784 37.1366 50.7199 37.3852 50.7199 37.6719C50.7199 37.9586 50.7784 38.1977 50.8955 38.4135C51.011 38.6307 51.1726 38.7989 51.3781 38.9188C51.5807 39.0373 51.8081 39.0987 52.0583 39.0987C52.3084 39.0987 52.5424 39.0373 52.7472 38.9188C52.9527 38.7989 53.1114 38.6314 53.2298 38.4135C53.3468 38.1963 53.4039 37.9491 53.4039 37.6719C53.4039 37.3947 53.3468 37.1366 53.2298 36.9194C53.1114 36.7036 52.9527 36.534 52.7472 36.4148Z" fill="#FF0F43"/>
<path d="M48.9589 30.8376C48.5691 30.8376 48.2005 30.9905 47.9234 31.2677L46.9207 32.2718L45.9166 31.2677C45.6438 30.9949 45.2665 30.8376 44.8825 30.8376H13.1279V41.7072C13.1279 43.3673 14.475 44.7188 16.1322 44.7188H36.4687C37.1715 44.7188 37.8304 44.9931 38.3263 45.4918L38.5062 45.6703L38.6861 45.4904C39.1819 44.9916 39.843 44.7188 40.5444 44.7188H60.8802C62.5373 44.7188 63.8844 43.3673 63.8844 41.7072V30.8391H48.9589V30.8376ZM23.7247 38.8032C23.4651 39.1586 23.1287 39.446 22.7148 39.6661C22.3016 39.8848 21.8218 39.996 21.2763 39.996C20.662 39.9974 20.1149 39.8592 19.6337 39.5872C19.1496 39.3144 18.7722 38.937 18.4965 38.4558C18.2208 37.9746 18.0833 37.4356 18.0833 36.8359C18.0833 36.2362 18.2208 35.7002 18.4965 35.2175C18.7722 34.7348 19.1496 34.3604 19.6337 34.0847C20.1164 33.8119 20.6634 33.6759 21.2763 33.6759C21.8321 33.6759 22.3162 33.779 22.7279 33.9874C23.1382 34.1959 23.4695 34.4672 23.7152 34.8043C23.9639 35.14 24.1438 35.5057 24.2564 35.8969H23.2165C23.0804 35.543 22.8493 35.2453 22.521 35.001C22.1955 34.7553 21.7794 34.6339 21.2741 34.6339C20.8653 34.6339 20.4982 34.7283 20.1742 34.9155C19.8502 35.1027 19.5986 35.3623 19.4158 35.6914C19.2344 36.0227 19.143 36.403 19.143 36.8345C19.143 37.2659 19.2344 37.6572 19.4129 37.9885C19.5928 38.3183 19.8429 38.5757 20.1669 38.7615C20.4923 38.9473 20.8624 39.0387 21.2755 39.0387C21.7911 39.0387 22.2168 38.9041 22.5524 38.6328C22.8866 38.3615 23.1251 38.0331 23.2596 37.6455H24.2966C24.1738 38.0624 23.9792 38.447 23.7225 38.8039H23.724L23.7247 38.8032ZM29.3661 37.9059H25.8317C25.8587 38.1274 25.9333 38.33 26.0562 38.5114C26.179 38.6942 26.3334 38.8368 26.5191 38.9429C26.7049 39.0474 26.9074 39.1016 27.1246 39.1016C27.4186 39.1016 27.6687 39.0387 27.8735 38.9173C28.079 38.7959 28.2289 38.643 28.3247 38.4602H29.2974C29.1548 38.8705 28.9003 39.2171 28.5346 39.503C28.1675 39.7875 27.7002 39.9301 27.1261 39.9301H27.129C26.7078 39.9287 26.3275 39.8314 25.9874 39.6347C25.6488 39.4372 25.3775 39.1674 25.1801 38.8244C24.9789 38.4799 24.8817 38.096 24.8817 37.6769C24.8817 37.2579 24.9789 36.8725 25.1801 36.5229C25.3775 36.177 25.6488 35.9057 25.9874 35.706C26.329 35.51 26.71 35.412 27.129 35.412C27.5481 35.412 27.9364 35.5093 28.2779 35.706C28.618 35.9035 28.8849 36.1734 29.0795 36.52C29.274 36.8645 29.3669 37.2411 29.3669 37.6514V37.9073H29.3654V37.9059H29.3661ZM34.3515 38.8361C34.1702 39.1805 33.9259 39.4489 33.6188 39.6391C33.3116 39.8292 32.9745 39.925 32.6044 39.925C32.3331 39.925 32.0969 39.8804 31.8987 39.7919C31.6976 39.702 31.5374 39.6018 31.4116 39.4833C31.2888 39.3663 31.2032 39.272 31.1571 39.1974H31.1315V41.4432H30.2028V35.5108H31.1315V36.1339H31.1571C31.2032 36.0607 31.2888 35.9649 31.4116 35.8479C31.5374 35.7309 31.6976 35.6293 31.8987 35.5393C32.0961 35.4508 32.3331 35.4077 32.6044 35.4077C32.9759 35.4077 33.3116 35.5035 33.6188 35.6936C33.9259 35.8838 34.1702 36.1521 34.3515 36.4966C34.5314 36.841 34.6229 37.2323 34.6229 37.6696C34.6229 38.107 34.5314 38.4909 34.3515 38.8339V38.8354V38.8361ZM38.8162 39.4848C38.5464 39.7107 38.172 39.8263 37.6907 39.8263H35.4566V35.5122H37.6878C37.965 35.5122 38.2078 35.559 38.4118 35.6548C38.6144 35.7492 38.7687 35.8764 38.8718 36.0388C38.9735 36.2019 39.0247 36.3818 39.0247 36.5814C39.0247 36.9054 38.945 37.1343 38.7863 37.2681C38.6276 37.4027 38.4835 37.4853 38.3519 37.5197H38.346V37.5453H38.3519C38.4316 37.557 38.5376 37.5914 38.6678 37.647C38.7965 37.704 38.9223 37.8115 39.0437 37.9673C39.1622 38.123 39.2207 38.33 39.2207 38.586C39.2207 38.9546 39.0876 39.2559 38.8162 39.4818V39.4848ZM44.0503 39.8248H43.1215V37.2791L43.1486 36.852H43.0959L41.0672 39.8234H40.0558V35.5108H40.9846V38.0565L40.959 38.4836H41.0087L43.0374 35.5108H44.0503V39.8248ZM48.8733 39.0972C48.6964 39.3444 48.458 39.5469 48.1589 39.699C47.8605 39.8519 47.5058 39.9279 47.0977 39.9279H47.1006C46.6874 39.9265 46.3093 39.8263 45.9678 39.6281C45.6263 39.4285 45.3579 39.1579 45.1619 38.8156C44.9659 38.4741 44.8679 38.0916 44.8679 37.6726C44.8679 37.2535 44.9652 36.8681 45.1619 36.5244C45.3579 36.1799 45.6248 35.9086 45.9678 35.7075C46.3079 35.51 46.6852 35.4091 47.1006 35.4091C47.516 35.4091 47.8437 35.4837 48.1376 35.6351C48.4346 35.785 48.6693 35.9796 48.8448 36.2194C49.0203 36.4593 49.1476 36.7211 49.2266 37.0049H48.2722C48.1881 36.7877 48.0448 36.6078 47.8466 36.4578C47.6491 36.3094 47.3983 36.2362 47.097 36.2362C46.863 36.2362 46.6487 36.2977 46.4527 36.4147C46.2567 36.5346 46.1024 36.7036 45.9898 36.9193C45.8771 37.1365 45.8186 37.3851 45.8186 37.6718C45.8186 37.9585 45.8757 38.1976 45.9898 38.4149C46.1024 38.6321 46.2596 38.8003 46.4527 38.9202C46.6487 39.0387 46.8615 39.0986 47.097 39.0986C47.4041 39.0986 47.6586 39.0204 47.8627 38.8631C48.0652 38.7074 48.2086 38.5143 48.2883 38.2861H49.2427C49.1739 38.575 49.0511 38.8449 48.8712 39.092V39.095H48.8726L48.8733 39.0972ZM54.0569 38.8229C53.8595 39.1659 53.5845 39.4358 53.2342 39.6332C52.8854 39.8292 52.4926 39.9272 52.0546 39.9272C51.6165 39.9272 51.2319 39.83 50.883 39.6332C50.5342 39.4358 50.2614 39.1659 50.0603 38.8229C49.8628 38.4785 49.7619 38.0945 49.7619 37.6755C49.7619 37.2564 49.8621 36.871 50.0603 36.5215C50.2614 36.1755 50.5334 35.9042 50.883 35.7046C51.2333 35.5086 51.6216 35.4106 52.0546 35.4106C52.4875 35.4106 52.8846 35.5079 53.2342 35.7046C53.5845 35.902 53.8573 36.1734 54.0569 36.5215C54.2581 36.8688 54.3553 37.2542 54.3553 37.6755C54.3553 38.0967 54.2581 38.4799 54.0569 38.8229ZM58.5341 39.4848C58.2642 39.7107 57.8913 39.8263 57.4086 39.8263H55.1744V35.5122H57.4057C57.6828 35.5122 57.9256 35.559 58.1297 35.6548C58.3322 35.7492 58.4865 35.8764 58.5897 36.0388C58.6913 36.2019 58.7425 36.3818 58.7425 36.5814C58.7425 36.9054 58.6628 37.1343 58.5041 37.2681C58.3454 37.4027 58.2013 37.4853 58.0697 37.5197H58.0638V37.5453H58.0697C58.1494 37.557 58.2554 37.5914 58.3856 37.647C58.5143 37.704 58.6401 37.8115 58.7615 37.9673C58.88 38.123 58.9385 38.33 58.9385 38.586C58.9385 38.9546 58.8054 39.2559 58.5341 39.4818V39.4848Z" fill="#FF0F43"/>
<path d="M45.3886 21.362C45.1985 21.245 44.9857 21.1865 44.7458 21.1865C44.5059 21.1865 44.2902 21.245 44.0942 21.362C43.8967 21.4791 43.7439 21.6451 43.6327 21.8623C43.5237 22.078 43.4667 22.331 43.4667 22.6221C43.4667 22.9132 43.5252 23.1567 43.6327 23.3724C43.7439 23.5896 43.8982 23.7564 44.0942 23.8727C44.2902 23.9911 44.5059 24.0482 44.7458 24.0482C44.9857 24.0482 45.1985 23.9911 45.3886 23.8727C45.5788 23.7556 45.7287 23.5896 45.8413 23.3724C45.951 23.1567 46.0058 22.9066 46.0058 22.6221C46.0058 22.3376 45.9488 22.078 45.8413 21.8623C45.7301 21.6451 45.5788 21.4783 45.3886 21.362Z" fill="#FF0F43"/>
<path d="M34.9746 21.3606C34.7786 21.2436 34.5614 21.1851 34.3216 21.1851C34.0817 21.1851 33.8747 21.2436 33.6846 21.3606C33.4915 21.4776 33.3387 21.6436 33.2275 21.8608C33.1178 22.0765 33.0615 22.3296 33.0615 22.6206C33.0615 22.9117 33.1185 23.1552 33.2275 23.371C33.3387 23.5882 33.4915 23.7549 33.6846 23.8712C33.8762 23.9897 34.089 24.0467 34.3216 24.0467C34.5541 24.0467 34.7786 23.9897 34.9746 23.8712C35.1706 23.7542 35.3235 23.5882 35.4346 23.371C35.5443 23.1552 35.6006 22.9051 35.6006 22.6206C35.6006 22.3362 35.5436 22.0765 35.4346 21.8608C35.3235 21.6436 35.1706 21.4769 34.9746 21.3606Z" fill="#FF0F43"/>
<path d="M39.236 21.2903L38.5106 23.945H40.5561L39.832 21.2903H39.236Z" fill="#FF0F43"/>
<path d="M55.4647 22.0405C55.5591 21.9535 55.6052 21.8409 55.6052 21.699C55.6052 21.5571 55.5569 21.443 55.4647 21.3575C55.3704 21.2704 55.2402 21.2302 55.0676 21.2302H53.8748V22.17H55.0676C55.2388 22.17 55.3704 22.1283 55.4647 22.0427V22.0413V22.0405Z" fill="#FF0F43"/>
<path d="M50.5203 21.3635C50.3148 21.245 50.0859 21.1851 49.8307 21.1851C49.5754 21.1851 49.3524 21.2465 49.1505 21.3635C48.945 21.4834 48.7834 21.6524 48.6679 21.8681C48.5508 22.0853 48.4923 22.334 48.4923 22.6206C48.4923 22.9073 48.5508 23.1465 48.6679 23.3637C48.7834 23.5809 48.945 23.7491 49.1505 23.8683C49.3531 23.9867 49.5805 24.0467 49.8307 24.0467C50.0808 24.0467 50.3148 23.9853 50.5203 23.8683C50.7258 23.7483 50.8845 23.5809 51.003 23.3637C51.12 23.1465 51.177 22.8993 51.177 22.6206C51.177 22.342 51.12 22.0853 51.003 21.8681C50.8845 21.6524 50.7258 21.4827 50.5203 21.3635Z" fill="#FF0F43"/>
<path d="M55.1371 22.8948H53.877V24.0049H55.1371C55.3346 24.0049 55.4925 23.9523 55.6059 23.8506C55.7185 23.749 55.777 23.6137 55.777 23.4491C55.777 23.2846 55.72 23.1507 55.6059 23.0476C55.4933 22.946 55.3346 22.8948 55.1371 22.8948Z" fill="#FF0F43"/>
<path d="M59.3517 22.6804H58.4749V23.9617H59.3517C59.5901 23.9617 59.7803 23.9032 59.9134 23.7832C60.0494 23.6633 60.1189 23.5105 60.1189 23.3218C60.1189 23.1331 60.0501 22.9803 59.9134 22.8603C59.7803 22.7419 59.5894 22.6819 59.3517 22.6819V22.6804Z" fill="#FF0F43"/>
<path d="M56.6875 15.7878C56.6349 15.7893 56.5844 15.7952 56.5317 15.7952H31.536C31.152 15.7952 30.7732 15.9509 30.5019 16.2252L29.4978 17.2322L28.4966 16.2252C28.2194 15.9495 27.8508 15.7952 27.4611 15.7952H21.5439V26.6567C21.5439 28.3168 22.891 29.6683 24.5482 29.6683H44.884C45.48 29.6683 46.068 29.8796 46.5309 30.2526C46.6026 30.3111 46.6735 30.3725 46.7408 30.4398L46.9207 30.6183L47.0992 30.4398C47.165 30.374 47.2352 30.3111 47.3076 30.2526C47.7749 29.8738 48.3505 29.6683 48.9575 29.6683H69.2918C70.949 29.6683 72.2961 28.3168 72.2961 26.6567V15.7871H56.686H56.6875V15.7878ZM30.839 24.7736L29.0663 22.2278H28.0205V24.7736H27.0076V18.7965H28.022V21.2735H29.0261L30.7732 18.7965H31.9375L29.919 21.6823L32.0486 24.775H30.8397V24.7736H30.839ZM36.5331 24.7721H35.5984V24.149H35.5714C35.5326 24.2229 35.45 24.3187 35.3257 24.435C35.1999 24.5534 35.0383 24.6536 34.8371 24.7436C34.6346 24.8321 34.4013 24.8752 34.1343 24.8752C33.7658 24.8752 33.4272 24.778 33.1171 24.5878C32.807 24.3977 32.5613 24.1293 32.3799 23.7848C32.1985 23.4418 32.1071 23.052 32.1071 22.6206C32.1071 22.1891 32.1985 21.792 32.3799 21.4475C32.5613 21.1031 32.8085 20.8347 33.1171 20.6445C33.4257 20.4544 33.7658 20.3586 34.1343 20.3586C34.4013 20.3586 34.6346 20.4032 34.8371 20.4902C35.0383 20.5802 35.2013 20.6833 35.3257 20.8018C35.4515 20.9217 35.5326 21.016 35.5714 21.0833H35.5984V20.4602H36.5331V24.7728V24.7721ZM41.9602 25.7118H41.0673V24.7721H38.0016V25.7118H37.1086V23.945H37.5759L38.5113 20.461H40.5568L41.4921 23.945H41.9609V25.7118H41.9602ZM46.686 23.7848C46.5046 24.1293 46.2604 24.3977 45.9532 24.5878C45.649 24.778 45.3089 24.8738 44.9403 24.8738C44.6675 24.8738 44.4328 24.8291 44.2331 24.7421C44.0357 24.6522 43.8733 24.552 43.749 24.4335C43.6232 24.3165 43.5406 24.2221 43.4945 24.1476H43.4674V26.3934H42.5416V20.4617H43.4674V21.0848H43.4945C43.5413 21.0109 43.6232 20.9151 43.749 20.7988C43.8748 20.6818 44.035 20.5802 44.2331 20.4902C44.4342 20.4017 44.6675 20.3586 44.9403 20.3586C45.3089 20.3586 45.6475 20.4544 45.9532 20.6445C46.2604 20.8347 46.5046 21.1031 46.686 21.4475C46.8673 21.792 46.9588 22.1832 46.9588 22.6206C46.9588 23.0579 46.8673 23.4418 46.686 23.7848ZM51.8315 23.7702C51.6341 24.1132 51.3598 24.383 51.0088 24.5805C50.66 24.7765 50.2673 24.8745 49.8299 24.8745C49.3926 24.8745 49.0072 24.7772 48.6583 24.5805C48.3095 24.383 48.0367 24.1132 47.8356 23.7702C47.6382 23.4257 47.5372 23.0418 47.5372 22.622C47.5372 22.2022 47.6374 21.8176 47.8356 21.468C48.0367 21.1221 48.3088 20.8508 48.6583 20.6511C49.0086 20.4551 49.397 20.3571 49.8299 20.3571C50.2629 20.3571 50.66 20.4544 51.0088 20.6511C51.3591 20.8486 51.6319 21.1199 51.8315 21.468C52.0327 21.8154 52.1299 22.2008 52.1299 22.622C52.1299 23.0433 52.0327 23.4265 51.8315 23.7702ZM56.3087 24.4335C56.0388 24.6595 55.6644 24.775 55.1832 24.775H52.949V20.461H55.1817C55.4589 20.461 55.7017 20.507 55.9057 20.6036C56.1083 20.6979 56.2626 20.8252 56.3657 20.9875C56.4674 21.1506 56.5186 21.3305 56.5186 21.5302C56.5186 21.8534 56.4389 22.083 56.2787 22.2161C56.12 22.3507 55.9759 22.4333 55.8443 22.4677H55.8384V22.4933H55.8443C55.924 22.5043 56.0301 22.5401 56.1602 22.595C56.2889 22.652 56.4147 22.7595 56.5361 22.9153C56.6546 23.0711 56.7131 23.278 56.7131 23.5354C56.7131 23.904 56.58 24.2053 56.3087 24.4313V24.4328V24.4335ZM60.8641 24.0547C60.7259 24.2763 60.5284 24.4518 60.2739 24.5805C60.0179 24.7077 59.7254 24.7721 59.3956 24.7721H57.5483V20.461H58.477V21.8695H59.3956C59.7254 21.8695 60.0172 21.9353 60.2739 22.0655C60.5284 22.1957 60.7266 22.3741 60.8641 22.5942C61.0016 22.8158 61.071 23.0586 61.071 23.3212C61.071 23.5837 61.0023 23.8338 60.8641 24.0539V24.0547ZM62.5044 24.7736H61.5661V20.461H62.5044V24.7736ZM66.3797 24.7736L65.3909 22.9804H65.0926L64.1141 24.7736H63.0741L64.3539 22.5803L63.1429 20.4632H64.1828L65.0926 22.1547H65.3909L66.3139 20.4632H67.3509L66.142 22.5803L67.4189 24.7736H66.3804H66.3797Z" fill="#FF0F43"/>
<path d="M23.7218 6.31639C23.5258 6.19937 23.3086 6.14087 23.0687 6.14087C22.8289 6.14087 22.6219 6.19937 22.4318 6.31639C22.2387 6.4334 22.0858 6.59941 21.9747 6.81661C21.865 7.03235 21.8087 7.28538 21.8087 7.57645C21.8087 7.86751 21.8657 8.11104 21.9747 8.32678C22.0858 8.54399 22.2387 8.71073 22.4318 8.82701C22.6234 8.94548 22.8362 9.00252 23.0687 9.00252C23.3013 9.00252 23.5258 8.94548 23.7218 8.82701C23.9178 8.70999 24.0706 8.54399 24.1818 8.32678C24.2915 8.11104 24.3478 7.86093 24.3478 7.57645C24.3478 7.29197 24.2908 7.03235 24.1818 6.81661C24.0706 6.59941 23.9178 6.43267 23.7218 6.31639Z" fill="#FF0F43"/>
<path d="M18.6889 6.31785C18.4973 6.20084 18.2845 6.14233 18.0446 6.14233C17.8047 6.14233 17.589 6.20084 17.393 6.31785C17.197 6.43486 17.0441 6.60087 16.933 6.81807C16.8218 7.03381 16.767 7.28685 16.767 7.57791C16.767 7.86898 16.8211 8.11251 16.933 8.32825C17.0441 8.54545 17.1984 8.71219 17.393 8.82847C17.589 8.94694 17.8062 9.00399 18.0446 9.00399C18.283 9.00399 18.4973 8.94694 18.6889 8.82847C18.879 8.71146 19.0304 8.54545 19.1401 8.32825C19.2513 8.11251 19.3061 7.8624 19.3061 7.57791C19.3061 7.29343 19.252 7.03381 19.1401 6.81807C19.0304 6.60087 18.879 6.43413 18.6889 6.31785Z" fill="#FF0F43"/>
<path d="M53.1918 6.27909C53.0119 6.18767 52.8115 6.14087 52.5906 6.14087C52.3698 6.14087 52.1753 6.18767 51.999 6.27909C51.8191 6.3705 51.6736 6.49336 51.5602 6.64621C51.4447 6.79906 51.3671 6.96653 51.3203 7.15082H53.8302C53.8032 6.96799 53.733 6.80198 53.6218 6.64621C53.5128 6.49336 53.3673 6.3705 53.1903 6.27909H53.1918Z" fill="#FF0F43"/>
<path d="M28.5376 7.85205H27.2775V8.96219H28.5376C28.7387 8.96073 28.8922 8.90954 29.0063 8.80789C29.119 8.70623 29.1775 8.57094 29.1775 8.40639C29.1775 8.24184 29.1204 8.10801 29.0063 8.0049C28.8937 7.90324 28.7365 7.85205 28.5376 7.85205Z" fill="#FF0F43"/>
<path d="M38.0147 6.27909C37.8348 6.18767 37.6344 6.14087 37.4136 6.14087C37.1927 6.14087 37.0004 6.18767 36.8234 6.27909C36.6435 6.3705 36.498 6.49336 36.3846 6.64621C36.2691 6.79906 36.1916 6.96653 36.1462 7.15082H38.6576C38.6305 6.96799 38.5603 6.80198 38.4491 6.64621C38.3402 6.49336 38.1946 6.3705 38.0177 6.27909H38.0147Z" fill="#FF0F43"/>
<path d="M28.8659 6.99634C28.9617 6.90931 29.0085 6.79669 29.0085 6.65481C29.0085 6.51294 28.9624 6.39885 28.8659 6.31329C28.7716 6.22626 28.6414 6.18604 28.4688 6.18604H27.276V7.12578H28.4688C28.6399 7.12578 28.7716 7.0841 28.8659 6.99853V6.99707V6.99634Z" fill="#FF0F43"/>
<path d="M0.62674 0.745117V11.6147C0.62674 13.2748 1.97383 14.6263 3.631 14.6263H27.4596C28.0622 14.6263 28.6341 14.8303 29.0992 15.2033C29.1745 15.2647 29.2477 15.3276 29.3179 15.3978L29.4978 15.5777L29.6777 15.3993C29.7479 15.3291 29.8232 15.2647 29.8993 15.2033C30.3607 14.8362 30.9421 14.6278 31.5338 14.6278H56.5295C56.5924 14.6278 56.6553 14.6219 56.7182 14.619C58.2869 14.5203 59.5353 13.2134 59.5353 11.6162V0.745117H0.62674ZM8.45332 9.72938H7.39218L8.28512 7.52664H7.00531L5.51415 3.75084H6.59723L7.6869 6.56935H8.66541L9.75507 3.75084H10.8111L8.45113 9.72792H8.45259V9.72938H8.45332ZM14.7748 9.72938H13.8366V6.24537H11.7655V9.72938H10.8396V5.41679H14.7741V9.72938H14.7748ZM19.9892 8.74063C19.8078 9.08508 19.5635 9.35348 19.2564 9.54362C18.9492 9.73377 18.6121 9.82957 18.242 9.82957C17.9707 9.82957 17.7345 9.78496 17.5363 9.69793C17.3352 9.60798 17.175 9.50779 17.0493 9.38931C16.9264 9.2723 16.8408 9.17796 16.7948 9.10337H16.7692V11.3493H15.8404V5.41679H16.7692V6.03987H16.7948C16.8416 5.96674 16.9264 5.8702 17.0493 5.75392C17.175 5.63691 17.3352 5.53526 17.5363 5.44531C17.7338 5.35682 17.9707 5.31367 18.242 5.31367C18.6135 5.31367 18.9492 5.40947 19.2564 5.59962C19.5635 5.78976 19.8078 6.05815 19.9892 6.40261C20.1691 6.74706 20.2605 7.13831 20.2605 7.57564C20.2605 8.01297 20.1691 8.39691 19.9892 8.7399V8.74063ZM25.2817 9.72938H24.3471V9.10629H24.32C24.2813 9.17943 24.1986 9.27596 24.0743 9.39224C23.9485 9.51071 23.7869 9.6109 23.5858 9.70086C23.3832 9.78935 23.1499 9.83249 22.883 9.83249C22.5144 9.83103 22.1758 9.73523 21.8657 9.54509C21.5556 9.35494 21.3099 9.08655 21.1286 8.7421C20.9472 8.39911 20.8558 8.00931 20.8558 7.57784C20.8558 7.14636 20.9472 6.74925 21.1286 6.4048C21.3099 6.06035 21.5571 5.79195 21.8657 5.60181C22.1743 5.41167 22.5144 5.31586 22.883 5.31586C23.1499 5.31586 23.3832 5.36047 23.5858 5.4475C23.7869 5.53745 23.95 5.64057 24.0743 5.75904C24.2001 5.87898 24.2813 5.97332 24.32 6.0406H24.3471V5.41752H25.2817V9.73011V9.72938ZM29.7106 9.38931C29.4393 9.61529 29.0634 9.73084 28.5807 9.73084H26.3509V5.41679H28.5807C28.8579 5.41679 29.1007 5.46359 29.3047 5.55939C29.5102 5.65373 29.6616 5.78098 29.7647 5.94334C29.8664 6.10642 29.919 6.28633 29.919 6.48598C29.919 6.80995 29.8393 7.03885 29.6806 7.17195C29.5219 7.30652 29.3764 7.38916 29.2462 7.42353H29.2374V7.44912H29.2462C29.3259 7.45936 29.4305 7.49593 29.5592 7.55078C29.6908 7.60782 29.8152 7.71532 29.9351 7.87109C30.0565 8.02687 30.115 8.23383 30.115 8.49125C30.115 8.85984 29.9783 9.16114 29.7106 9.38712V9.38858V9.38931ZM33.885 9.72938L32.9503 6.24537H32.3448L31.4065 9.72938H30.4536L31.6281 5.41679H33.6663L34.8408 9.72938H33.885ZM39.6514 7.8104H36.1169C36.144 8.03199 36.2186 8.23602 36.3415 8.41593C36.4643 8.59876 36.6186 8.74137 36.8044 8.84741C36.9901 8.95199 37.1927 9.0061 37.4099 9.0061C37.7039 9.0061 37.954 8.94321 38.1595 8.82181C38.365 8.70041 38.5142 8.54756 38.6108 8.36474H39.5834C39.4408 8.77501 39.1863 9.12165 38.8206 9.4076C38.455 9.69208 37.9862 9.83469 37.4121 9.83469H37.415C36.9938 9.83323 36.6135 9.73596 36.2735 9.53924C35.9349 9.34178 35.6635 9.07192 35.4661 8.72893C35.265 8.38448 35.1677 8.00054 35.1677 7.58149C35.1677 7.16245 35.265 6.77704 35.4661 6.42747C35.6635 6.08156 35.9349 5.81024 36.2735 5.61059C36.615 5.41459 36.9953 5.3166 37.415 5.3166C37.8348 5.3166 38.2224 5.41386 38.5647 5.61059C38.9047 5.80804 39.1717 6.0779 39.3662 6.42454C39.5607 6.769 39.6536 7.14563 39.6536 7.5559V7.81332V7.8104H39.6521H39.6514ZM44.4628 9.72938H43.5274V7.93545H41.4132V9.72938H40.4873V5.41679H41.4132V7.10833H43.5274V5.41679H44.4628V9.72938ZM49.5228 9.72938H48.594V7.18365L48.6196 6.75656H48.5699L46.5426 9.72938H45.5312V5.41679H46.4571V7.96251L46.4315 8.3896H46.4841L48.5084 5.41679H49.5228V9.72938ZM54.8285 7.8104H51.294C51.3211 8.03199 51.3957 8.23602 51.5185 8.41593C51.6414 8.59876 51.7957 8.74137 51.9829 8.84741C52.1687 8.95199 52.3713 9.0061 52.5885 9.0061C52.8825 9.0061 53.1311 8.94321 53.3373 8.82181C53.5428 8.70041 53.6928 8.54756 53.7886 8.36474H54.7598C54.6186 8.77501 54.3626 9.12165 53.997 9.4076C53.6299 9.69208 53.1625 9.83469 52.5885 9.83469H52.5914C52.1701 9.83323 51.7899 9.73596 51.4498 9.53924C51.1112 9.34178 50.8399 9.07192 50.6424 8.72893C50.4413 8.38448 50.344 8.00054 50.344 7.58149C50.344 7.16245 50.4413 6.77704 50.6424 6.42747C50.8399 6.08156 51.1112 5.81024 51.4498 5.61059C51.7899 5.41459 52.1709 5.3166 52.5914 5.3166C53.0119 5.3166 53.3988 5.41386 53.7403 5.61059C54.0804 5.80804 54.3473 6.0779 54.5418 6.42454C54.7363 6.769 54.8292 7.14563 54.8292 7.5559V7.81332V7.8104H54.8278H54.8285Z" fill="#FF0F43"/>
</svg>
